<?xml version="1.0" encoding="iso-8859-1"?>
<!-- Generator: Adobe Illustrator 18.0.0, SVG Export Plug-In . SVG Version: 6.00 Build 0)  -->
<!DOCTYPE svg PUBLIC "-//W3C//DTD SVG 1.1//EN" "http://www.w3.org/Graphics/SVG/1.1/DTD/svg11.dtd">
<svg version="1.1" id="Laag_1" xmlns="http://www.w3.org/2000/svg" xmlns:xlink="http://www.w3.org/1999/xlink" x="0px" y="0px"
	 viewBox="0 0 393 117" style="enable-background:new 0 0 393 117;" xml:space="preserve">
<path style="fill:#FFFFFF;" d="M87.893,49.773c-22.381,2.793-15.987,15.88-15.987,15.88c5.116,11.51,23.98,3.943,23.98,3.943
	s-10.018,8.846-23.351,6.339C56.488,72.919,60.836,61.34,60.836,61.34s1.699-8.452,18.299-12.927s30.844,4.67,30.844,4.67
	C98.024,48.251,87.893,49.773,87.893,49.773z"/>
<g>
	<path style="fill:#FFFFFF;" d="M34.581,63.228c0.003-0.005,0.008-0.012,0.014-0.022C34.59,63.214,34.586,63.221,34.581,63.228z"/>
	<path style="fill:#FFFFFF;" d="M34.581,63.228c-0.002,0.004-0.005,0.008-0.007,0.011C34.574,63.24,34.577,63.235,34.581,63.228z"/>
	<path style="fill:#FFFFFF;" d="M34.595,63.207c0.002-0.004,0.005-0.008,0.007-0.012C34.599,63.199,34.597,63.203,34.595,63.207z"/>
	<path style="fill:#FFFFFF;" d="M44.859,91.997"/>
	<path style="fill:#FFFFFF;" d="M47.998,92.51c-0.063-0.01-0.124-0.02-0.186-0.03C47.907,92.495,47.97,92.506,47.998,92.51z"/>
	<path style="fill:#FFFFFF;" d="M48.016,92.513c0,0-0.007-0.001-0.018-0.003C48.004,92.511,48.01,92.512,48.016,92.513z"/>
	<path style="fill:#FFFFFF;" d="M47.812,92.48"/>
	<path style="fill:#FFFFFF;" d="M47.377,92.409"/>
	<g>
		<path style="fill:#FFFFFF;" d="M54.324,78.601c15.652,14.746,43.353,0.205,43.353,0.205S78.261,97.462,48.016,92.513
			c0,0-28.492-5.481-13.442-29.274c0,0,8.757-13.235,32.659-18.938c0.005-0.001,0.009-0.002,0.014-0.003
			c-0.009,0.002-0.014,0.003-0.014,0.003s0.126-0.032,0.361-0.086c0.036-0.009,0.072-0.017,0.108-0.026
			c-0.038,0.009-0.074,0.018-0.107,0.026c2.532-0.58,17.959-3.713,30.401,2.927c0,0-15.903-5.833-35.621,4.27
			C62.374,51.412,38.672,63.855,54.324,78.601z"/>
		<path style="fill:#FFFFFF;" d="M67.286,44.289c-0.011,0.003-0.022,0.005-0.033,0.008C67.262,44.295,67.273,44.292,67.286,44.289z"
			/>
		<path style="fill:#FFFFFF;" d="M67.545,44.228c-0.036,0.009-0.072,0.017-0.109,0.026C67.469,44.246,67.505,44.237,67.545,44.228z"
			/>
		<path style="fill:#FFFFFF;" d="M67.349,44.274c0.029-0.007,0.057-0.014,0.086-0.021C67.402,44.262,67.374,44.268,67.349,44.274z"
			/>
		<path style="fill:#FFFFFF;" d="M62.348,51.425c0.006-0.003,0.012-0.006,0.019-0.01C62.363,51.418,62.357,51.421,62.348,51.425z"/>
		<path style="fill:#FFFFFF;" d="M54.92,55.231c-0.079,0.041-0.154,0.079-0.226,0.116C54.767,55.31,54.842,55.271,54.92,55.231z"/>
		<path style="fill:#FFFFFF;" d="M55.072,55.153c0.013-0.007,0.027-0.014,0.04-0.021C55.099,55.14,55.086,55.146,55.072,55.153z"/>
		<path style="fill:#FFFFFF;" d="M55.427,54.972c-0.051,0.026-0.101,0.052-0.15,0.077C55.326,55.023,55.376,54.998,55.427,54.972z"
			/>
		<path style="fill:#FFFFFF;" d="M56.486,54.429c-0.318,0.163-0.606,0.31-0.865,0.443C55.894,54.733,56.185,54.584,56.486,54.429z"
			/>
		<path style="fill:#FFFFFF;" d="M56.97,54.181c0.081-0.042,0.165-0.084,0.249-0.128C57.136,54.096,57.053,54.139,56.97,54.181z"/>
		<path style="fill:#FFFFFF;" d="M57.38,53.971c0.089-0.045,0.179-0.092,0.272-0.139C57.561,53.878,57.471,53.925,57.38,53.971z"/>
		<path style="fill:#FFFFFF;" d="M58.151,53.576c0.21-0.107,0.428-0.219,0.654-0.335C58.589,53.351,58.371,53.464,58.151,53.576z"/>
		<path style="fill:#FFFFFF;" d="M59.094,53.093c-0.073,0.037-0.145,0.074-0.216,0.111C58.951,53.166,59.023,53.129,59.094,53.093z"
			/>
		<path style="fill:#FFFFFF;" d="M59.742,52.761c-0.121,0.062-0.24,0.123-0.357,0.183C59.506,52.882,59.625,52.821,59.742,52.761z"
			/>
		<path style="fill:#FFFFFF;" d="M59.747,52.758c0.085-0.044,0.172-0.088,0.259-0.133C59.921,52.669,59.834,52.713,59.747,52.758z"
			/>
		<path style="fill:#FFFFFF;" d="M60.369,52.44c-0.086,0.044-0.17,0.087-0.254,0.13C60.201,52.526,60.285,52.482,60.369,52.44z"/>
		<path style="fill:#FFFFFF;" d="M60.54,52.352c0.009-0.004,0.017-0.009,0.026-0.013C60.558,52.343,60.549,52.347,60.54,52.352z"/>
		<path style="fill:#FFFFFF;" d="M60.804,52.216c0.002-0.001,0.004-0.002,0.006-0.003C60.808,52.214,60.806,52.215,60.804,52.216z"
			/>
		<path style="fill:#FFFFFF;" d="M61.803,51.705c0.014-0.007,0.027-0.014,0.041-0.021C61.83,51.691,61.817,51.698,61.803,51.705z"/>
		<path style="fill:#FFFFFF;" d="M62.096,51.555c0.025-0.013,0.049-0.025,0.074-0.038C62.147,51.528,62.123,51.541,62.096,51.555z"
			/>
		<path style="fill:#FFFFFF;" d="M62.299,51.451c0.011-0.005,0.021-0.011,0.032-0.016C62.322,51.439,62.311,51.444,62.299,51.451z"
			/>
		<path style="fill:#FFFFFF;" d="M54.377,55.51c-0.063,0.032-0.123,0.063-0.18,0.092C54.253,55.573,54.313,55.543,54.377,55.51z"/>
		<path style="fill:#FFFFFF;" d="M54.069,55.667c-0.081,0.042-0.154,0.079-0.215,0.11C53.914,55.747,53.985,55.71,54.069,55.667z"/>
		<path style="fill:#FFFFFF;" d="M53.843,55.783c-0.004,0.002-0.008,0.004-0.012,0.006C53.835,55.788,53.839,55.785,53.843,55.783z"
			/>
		<path style="fill:#FFFFFF;" d="M53.75,55.831c-0.013,0.007-0.025,0.013-0.036,0.019C53.725,55.844,53.737,55.838,53.75,55.831z"/>
		<path style="fill:#FFFFFF;" d="M53.613,55.901c0.003-0.002,0.013-0.007,0.028-0.015C53.626,55.894,53.616,55.899,53.613,55.901z"
			/>
	</g>
	<path style="fill:#FFFFFF;" d="M39.288,55.788c0.023-0.037,0.047-0.074,0.07-0.11C39.334,55.714,39.311,55.75,39.288,55.788z"/>
	<path style="fill:#FFFFFF;" d="M72.895,42.951"/>
	<path style="fill:#FFFFFF;" d="M67.702,44.19c0.013-0.003,0.026-0.006,0.039-0.009C67.728,44.184,67.714,44.187,67.702,44.19z"/>
</g>
<path style="fill:#FFFFFF;" d="M32.701,96.813c0,0-23.126-11.028-8.062-32.799s44.644-23.467,44.644-23.467
	c-16.027-0.679-31.924,6.266-31.924,6.266S2.459,61.896,5.973,85.976s33.942,26.997,33.942,26.997s22.184,3.141,44.449-8.233
	s25.456-27.54,25.456-27.54C72.487,118.934,32.701,96.813,32.701,96.813z"/>
<circle style="fill:#FFFFFF;" cx="48.222" cy="16.992" r="4.152"/>
<path style="fill:#FFFFFF;" d="M44.325,32.302c0.658,7.252-0.268,13.934-0.268,13.934c0,0.226,0.881,0.196,0.881,0.196
	c2.033-6.193,5.841-6.662,5.841-6.662c5.524-0.656,6.208,2.941,6.208,2.941l0.784-0.196c0,0-0.126-11.238-5.086-17.064
	S33.77,22.536,33.77,22.536S43.668,25.05,44.325,32.302z"/>
<circle style="fill:#FFFFFF;" cx="71.465" cy="11.993" r="4.352"/>
<path style="fill:#FFFFFF;" d="M84.319,13.036c0,0-7.744,5.062-12.063,5.393s-14.387-3.63-14.387-3.63s7.674,5.965,7.982,12.683
	c0.308,6.718-4.455,19.832-4.455,19.832l1.273-0.685c0,0,4.147-7.558,8.425-7.96c4.277-0.402,8.915,5.218,8.915,5.218l0.49-0.783
	C80.499,43.102,71.368,25.44,84.319,13.036z"/>
<path style="fill:#FFFFFF;" d="M94.689,25.111c0.193,8.13-8.606,22.79-8.606,22.79l2.057-0.881
	c8.448-8.273,14.359-6.413,14.359-6.413c4.255,0.499,6.409,11.897,6.409,11.897l0.49,0.294c0,0,1.991-16.358,3.037-23.211
	s9.012-9.304,9.012-9.304s-4.586,1.146-12.035-0.514C101.963,18.11,88.434,4.613,88.434,4.613S94.496,16.981,94.689,25.111z"/>
<circle style="fill:#FFFFFF;" cx="110.377" cy="10.815" r="5.398"/>
<polygon style="fill:#FFFFFF;" points="129.691,33.51 124.495,83.867 128.316,83.867 131.678,49.71 146.504,83.867 149.025,83.867 
	163.774,49.175 167.289,83.867 174.549,83.867 169.353,33.51 166.754,33.51 149.637,73.704 132.29,33.51 "/>
<polygon style="fill:#FFFFFF;" points="296.007,83.867 288.289,83.867 282.939,69.578 264.523,69.578 259.021,83.867 
	255.123,83.867 274.457,33.51 276.75,33.51 "/>
<polygon style="fill:#FFFFFF;" points="281.717,66.139 273.846,44.896 265.822,66.139 "/>
<polygon style="fill:#FFFFFF;" points="221.109,83.867 213.391,83.867 208.041,69.578 189.624,69.578 184.122,83.867 
	180.225,83.867 199.559,33.51 201.851,33.51 "/>
<polygon style="fill:#FFFFFF;" points="206.819,66.139 198.947,44.896 190.924,66.139 "/>
<polygon style="fill:#FFFFFF;" points="387.583,84.17 379.865,84.17 374.515,69.881 356.099,69.881 350.596,84.17 346.699,84.17 
	366.033,33.813 368.326,33.813 "/>
<polygon style="fill:#FFFFFF;" points="373.293,66.442 365.422,45.199 357.398,66.442 "/>
<path style="fill:#FFFFFF;" d="M234.415,33.51v3.439h5.961v27.156c0,0,0.564,10.765-3.28,14.638
	c-2.982,3.005-6.997,1.926-10.705-1.218l-2.369,2.369c0,0,2.686,3.382,7.48,4.258c4.794,0.876,7.88-0.667,7.88-0.667
	s3.977-1.137,6.103-5.237c2.027-3.91,1.997-8.496,1.997-8.496V33.51H234.415"/>
<path style="fill:#FFFFFF;" d="M330.544,81.692c0,0-3.184,1.971-10.995,2.175c-4.089,0.107-18.035,0-18.035,0v-3.515h5.961V33.51
	h12.227c0,0,17.094-1.134,21.89,20.226C346.388,75.096,330.544,81.692,330.544,81.692z"/>
<path style="fill:#FFFFFF;" d="M334.511,57.885c-2.098-23.276-19.929-20.937-19.929-20.937v43.403
	C314.582,80.352,336.609,81.161,334.511,57.885z"/>
</svg>
