<?xml version="1.0" encoding="iso-8859-1"?>
<!-- Generator: Adobe Illustrator 18.0.0, SVG Export Plug-In . SVG Version: 6.00 Build 0)  -->
<!DOCTYPE svg PUBLIC "-//W3C//DTD SVG 1.1//EN" "http://www.w3.org/Graphics/SVG/1.1/DTD/svg11.dtd">
<svg version="1.1" id="Laag_1" xmlns="http://www.w3.org/2000/svg" xmlns:xlink="http://www.w3.org/1999/xlink" x="0px" y="0px"
	 viewBox="0 0 300 300" style="enable-background:new 0 0 300 300;" xml:space="preserve">
<path style="fill:#009E86;" d="M211.885,126.151c-57.043,7.119-40.745,40.473-40.745,40.473c13.04,29.336,61.117,10.05,61.117,10.05
	s-25.534,22.546-59.516,16.156c-40.896-7.689-29.815-37.201-29.815-37.201s4.331-21.541,46.64-32.948s78.613,11.901,78.613,11.901
	C237.706,122.27,211.885,126.151,211.885,126.151z"/>
<g>
	<path style="fill:#009E86;" d="M76.01,160.443c0.008-0.013,0.02-0.031,0.035-0.055C76.033,160.406,76.022,160.424,76.01,160.443z"
		/>
	<path style="fill:#009E86;" d="M76.01,160.443c-0.006,0.01-0.012,0.019-0.018,0.029C75.992,160.471,75.999,160.46,76.01,160.443z"
		/>
	<path style="fill:#009E86;" d="M76.045,160.388c0.006-0.01,0.012-0.02,0.019-0.03C76.057,160.369,76.051,160.378,76.045,160.388z"
		/>
	<path style="fill:#009E86;" d="M102.205,233.765"/>
	<path style="fill:#009E86;" d="M110.206,235.074c-0.16-0.026-0.315-0.052-0.474-0.078
		C109.973,235.036,110.134,235.062,110.206,235.074z"/>
	<path style="fill:#009E86;" d="M110.252,235.081c0,0-0.017-0.003-0.046-0.008C110.222,235.076,110.237,235.079,110.252,235.081z"/>
	<path style="fill:#009E86;" d="M109.732,234.996"/>
	<path style="fill:#009E86;" d="M108.623,234.815"/>
	<g>
		<path style="fill:#009E86;" d="M126.33,199.623c39.893,37.582,110.494,0.522,110.494,0.522s-49.486,47.548-126.572,34.936
			c0,0-72.618-13.97-34.26-74.61c0,0,22.32-33.733,83.237-48.266c0.012-0.003,0.024-0.006,0.036-0.009
			c-0.023,0.005-0.036,0.009-0.036,0.009s0.322-0.083,0.921-0.22c0.091-0.022,0.184-0.044,0.275-0.066
			c-0.097,0.023-0.188,0.045-0.274,0.065c6.452-1.479,45.772-9.464,77.484,7.459c0,0-40.532-14.868-90.788,10.882
			C146.847,130.327,86.437,162.041,126.33,199.623z"/>
		<path style="fill:#009E86;" d="M159.365,112.173c-0.028,0.007-0.055,0.013-0.083,0.02
			C159.303,112.188,159.332,112.181,159.365,112.173z"/>
		<path style="fill:#009E86;" d="M160.025,112.016c-0.092,0.022-0.184,0.044-0.277,0.066
			C159.83,112.062,159.924,112.04,160.025,112.016z"/>
		<path style="fill:#009E86;" d="M159.525,112.135c0.074-0.018,0.146-0.035,0.22-0.052
			C159.661,112.102,159.589,112.12,159.525,112.135z"/>
		<path style="fill:#009E86;" d="M146.781,130.361c0.016-0.008,0.032-0.016,0.048-0.024
			C146.818,130.342,146.802,130.35,146.781,130.361z"/>
		<path style="fill:#009E86;" d="M127.849,140.061c-0.202,0.104-0.394,0.202-0.576,0.295
			C127.458,140.261,127.65,140.163,127.849,140.061z"/>
		<path style="fill:#009E86;" d="M128.237,139.862c0.033-0.017,0.069-0.035,0.103-0.053
			C128.305,139.827,128.271,139.845,128.237,139.862z"/>
		<path style="fill:#009E86;" d="M129.139,139.4c-0.131,0.067-0.257,0.132-0.382,0.195
			C128.883,139.531,129.01,139.466,129.139,139.4z"/>
		<path style="fill:#009E86;" d="M131.84,138.016c-0.81,0.415-1.544,0.791-2.206,1.13C130.33,138.79,131.071,138.41,131.84,138.016z
			"/>
		<path style="fill:#009E86;" d="M133.074,137.384c0.207-0.106,0.42-0.215,0.636-0.326
			C133.497,137.167,133.285,137.276,133.074,137.384z"/>
		<path style="fill:#009E86;" d="M134.119,136.849c0.226-0.116,0.457-0.234,0.692-0.355
			C134.58,136.612,134.349,136.731,134.119,136.849z"/>
		<path style="fill:#009E86;" d="M136.083,135.842c0.534-0.274,1.09-0.559,1.668-0.855
			C137.2,135.27,136.642,135.555,136.083,135.842z"/>
		<path style="fill:#009E86;" d="M138.487,134.61c-0.186,0.095-0.368,0.189-0.55,0.282
			C138.121,134.798,138.305,134.704,138.487,134.61z"/>
		<path style="fill:#009E86;" d="M140.139,133.764c-0.308,0.158-0.611,0.313-0.909,0.466
			C139.537,134.072,139.841,133.917,140.139,133.764z"/>
		<path style="fill:#009E86;" d="M140.15,133.758c0.217-0.111,0.438-0.224,0.66-0.338
			C140.593,133.531,140.373,133.644,140.15,133.758z"/>
		<path style="fill:#009E86;" d="M141.735,132.946c-0.218,0.112-0.434,0.223-0.648,0.332
			C141.307,133.166,141.523,133.055,141.735,132.946z"/>
		<path style="fill:#009E86;" d="M142.173,132.722c0.022-0.011,0.043-0.022,0.065-0.033
			C142.217,132.699,142.195,132.711,142.173,132.722z"/>
		<path style="fill:#009E86;" d="M142.846,132.377c0.005-0.003,0.01-0.005,0.015-0.008
			C142.856,132.372,142.851,132.374,142.846,132.377z"/>
		<path style="fill:#009E86;" d="M145.391,131.073c0.035-0.018,0.069-0.035,0.103-0.053
			C145.461,131.037,145.426,131.055,145.391,131.073z"/>
		<path style="fill:#009E86;" d="M146.138,130.69c0.063-0.032,0.126-0.065,0.189-0.097
			C146.268,130.623,146.206,130.655,146.138,130.69z"/>
		<path style="fill:#009E86;" d="M146.656,130.425c0.027-0.014,0.054-0.027,0.081-0.041
			C146.713,130.396,146.686,130.409,146.656,130.425z"/>
		<path style="fill:#009E86;" d="M126.464,140.771c-0.161,0.082-0.314,0.161-0.458,0.234
			C126.148,140.932,126.3,140.855,126.464,140.771z"/>
		<path style="fill:#009E86;" d="M125.68,141.172c-0.208,0.106-0.391,0.201-0.547,0.281
			C125.285,141.375,125.466,141.282,125.68,141.172z"/>
		<path style="fill:#009E86;" d="M125.103,141.468c-0.011,0.006-0.02,0.01-0.031,0.016
			C125.082,141.479,125.092,141.473,125.103,141.468z"/>
		<path style="fill:#009E86;" d="M124.866,141.589c-0.033,0.017-0.064,0.033-0.092,0.047
			C124.802,141.622,124.833,141.606,124.866,141.589z"/>
		<path style="fill:#009E86;" d="M124.516,141.768c0.008-0.004,0.033-0.017,0.072-0.037
			C124.55,141.751,124.526,141.764,124.516,141.768z"/>
	</g>
	<path style="fill:#009E86;" d="M88.006,141.479c0.06-0.094,0.119-0.188,0.178-0.281C88.124,141.291,88.066,141.384,88.006,141.479z
		"/>
	<path style="fill:#009E86;" d="M173.66,108.763"/>
	<path style="fill:#009E86;" d="M160.425,111.92c0.033-0.008,0.067-0.016,0.1-0.024C160.491,111.905,160.457,111.912,160.425,111.92
		z"/>
</g>
<path style="fill:#009E86;" d="M71.22,246.041c0,0-58.942-28.106-20.547-83.596s113.784-59.81,113.784-59.81
	c-40.847-1.729-81.363,15.971-81.363,15.971s-88.952,38.441-79.997,99.812s86.507,68.806,86.507,68.806s56.54,8.007,113.287-20.983
	s64.88-70.191,64.88-70.191C172.621,302.419,71.22,246.041,71.22,246.041z"/>
<circle style="fill:#009E86;" cx="110.777" cy="42.6" r="10.583"/>
<path style="fill:#009E86;" d="M100.846,81.621c1.677,18.483-0.684,35.513-0.684,35.513c0,0.575,2.247,0.5,2.247,0.5
	c5.183-15.783,14.887-16.98,14.887-16.98c14.078-1.672,15.822,7.496,15.822,7.496l1.999-0.5c0,0-0.322-28.642-12.963-43.492
	S73.944,56.73,73.944,56.73S99.169,63.138,100.846,81.621z"/>
<circle style="fill:#009E86;" cx="170.015" cy="29.86" r="11.093"/>
<path style="fill:#009E86;" d="M202.778,32.517c0,0-19.737,12.9-30.744,13.745c-11.007,0.844-36.668-9.252-36.668-9.252
	s19.558,15.203,20.343,32.325s-11.354,50.546-11.354,50.546l3.245-1.746c0,0,10.571-19.264,21.472-20.289
	c10.902-1.025,22.721,13.299,22.721,13.299l1.248-1.997C193.042,109.148,169.769,64.133,202.778,32.517z"/>
<path style="fill:#009E86;" d="M229.208,63.293c0.492,20.721-21.934,58.086-21.934,58.086l5.244-2.247
	c21.532-21.086,36.598-16.345,36.598-16.345c10.845,1.271,16.334,30.323,16.334,30.323l1.248,0.748c0,0,5.074-41.693,7.74-59.158
	c2.667-17.465,22.969-23.712,22.969-23.712s-11.689,2.92-30.674-1.309c-18.985-4.229-53.467-38.628-53.467-38.628
	S228.716,42.572,229.208,63.293z"/>
<circle style="fill:#009E86;" cx="269.192" cy="26.857" r="13.757"/>
</svg>
